<mxfile host="65bd71144e">
    <diagram id="H02vTx0peyqOi5SLfpdX" name="Page-1">
        <mxGraphModel dx="850" dy="1706" grid="1" gridSize="10" guides="1" tooltips="1" connect="1" arrows="1" fold="1" page="1" pageScale="1" pageWidth="827" pageHeight="1169" math="0" shadow="0">
            <root>
                <mxCell id="0"/>
                <mxCell id="1" parent="0"/>
                <mxCell id="2" value="INICIO" style="ellipse;whiteSpace=wrap;html=1;fillColor=#60a917;fontColor=#ffffff;strokeColor=#2D7600;" parent="1" vertex="1">
                    <mxGeometry x="330" y="-880" width="90" height="60" as="geometry"/>
                </mxCell>
                <mxCell id="3" value="" style="endArrow=classic;html=1;" parent="1" edge="1">
                    <mxGeometry width="50" height="50" relative="1" as="geometry">
                        <mxPoint x="374.5" y="-820" as="sourcePoint"/>
                        <mxPoint x="374.5" y="-760" as="targetPoint"/>
                    </mxGeometry>
                </mxCell>
                <mxCell id="4" value="Precio.costo" style="shape=parallelogram;perimeter=parallelogramPerimeter;whiteSpace=wrap;html=1;fixedSize=1;fillColor=#1ba1e2;fontColor=#ffffff;strokeColor=#006EAF;" parent="1" vertex="1">
                    <mxGeometry x="310" y="-760" width="120" height="50" as="geometry"/>
                </mxCell>
                <mxCell id="5" value="" style="endArrow=classic;html=1;" parent="1" edge="1">
                    <mxGeometry width="50" height="50" relative="1" as="geometry">
                        <mxPoint x="374.5" y="-710" as="sourcePoint"/>
                        <mxPoint x="374.5" y="-640" as="targetPoint"/>
                    </mxGeometry>
                </mxCell>
                <mxCell id="7" value="&lt;font style=&quot;font-size: 11px;&quot;&gt;Precio_costo&lt;/font&gt; &amp;lt;3000" style="rhombus;whiteSpace=wrap;html=1;fillColor=#f0a30a;fontColor=#000000;strokeColor=#BD7000;" parent="1" vertex="1">
                    <mxGeometry x="334" y="-640" width="86" height="90" as="geometry"/>
                </mxCell>
                <mxCell id="8" value="" style="endArrow=classic;html=1;" edge="1" parent="1">
                    <mxGeometry width="50" height="50" relative="1" as="geometry">
                        <mxPoint x="334" y="-600" as="sourcePoint"/>
                        <mxPoint x="220" y="-560" as="targetPoint"/>
                        <Array as="points">
                            <mxPoint x="220" y="-600"/>
                        </Array>
                    </mxGeometry>
                </mxCell>
                <mxCell id="9" value="&lt;font style=&quot;font-size: 11px;&quot;&gt;Precio_costo &amp;lt;=6000&lt;/font&gt;" style="rhombus;whiteSpace=wrap;html=1;fillColor=#f0a30a;fontColor=#000000;strokeColor=#BD7000;" vertex="1" parent="1">
                    <mxGeometry x="180" y="-560" width="80" height="80" as="geometry"/>
                </mxCell>
                <mxCell id="10" value="" style="endArrow=none;html=1;" edge="1" parent="1">
                    <mxGeometry width="50" height="50" relative="1" as="geometry">
                        <mxPoint x="180" y="-520" as="sourcePoint"/>
                        <mxPoint x="80" y="-480" as="targetPoint"/>
                        <Array as="points">
                            <mxPoint x="80" y="-520"/>
                        </Array>
                    </mxGeometry>
                </mxCell>
                <mxCell id="11" value="Ganancia=0,25*&lt;br&gt;Precio_Costo" style="rounded=0;whiteSpace=wrap;html=1;fillColor=#60a917;fontColor=#ffffff;strokeColor=#2D7600;" vertex="1" parent="1">
                    <mxGeometry x="20" y="-480" width="140" height="50" as="geometry"/>
                </mxCell>
                <mxCell id="12" value="" style="endArrow=none;html=1;" edge="1" parent="1">
                    <mxGeometry width="50" height="50" relative="1" as="geometry">
                        <mxPoint x="260" y="-520" as="sourcePoint"/>
                        <mxPoint x="360" y="-480" as="targetPoint"/>
                        <Array as="points">
                            <mxPoint x="360" y="-520"/>
                        </Array>
                    </mxGeometry>
                </mxCell>
                <mxCell id="13" value="Ganancia=500" style="rounded=0;whiteSpace=wrap;html=1;fillColor=#60a917;fontColor=#ffffff;strokeColor=#2D7600;" vertex="1" parent="1">
                    <mxGeometry x="300" y="-480" width="130" height="50" as="geometry"/>
                </mxCell>
                <mxCell id="14" value="" style="endArrow=none;html=1;" edge="1" parent="1">
                    <mxGeometry width="50" height="50" relative="1" as="geometry">
                        <mxPoint x="414" y="-600" as="sourcePoint"/>
                        <mxPoint x="560" y="-560" as="targetPoint"/>
                        <Array as="points">
                            <mxPoint x="560" y="-600"/>
                        </Array>
                    </mxGeometry>
                </mxCell>
                <mxCell id="15" value="Ganancia=0,15*&lt;br&gt;Precio_costo" style="rounded=0;whiteSpace=wrap;html=1;fillColor=#60a917;fontColor=#ffffff;strokeColor=#2D7600;" vertex="1" parent="1">
                    <mxGeometry x="500" y="-560" width="120" height="60" as="geometry"/>
                </mxCell>
                <mxCell id="16" value="" style="endArrow=none;html=1;" edge="1" parent="1">
                    <mxGeometry width="50" height="50" relative="1" as="geometry">
                        <mxPoint x="360" y="-430" as="sourcePoint"/>
                        <mxPoint x="370" y="-340" as="targetPoint"/>
                        <Array as="points">
                            <mxPoint x="360" y="-340"/>
                        </Array>
                    </mxGeometry>
                </mxCell>
                <mxCell id="17" value="" style="endArrow=none;html=1;" edge="1" parent="1">
                    <mxGeometry width="50" height="50" relative="1" as="geometry">
                        <mxPoint x="80" y="-430" as="sourcePoint"/>
                        <mxPoint x="400" y="-340" as="targetPoint"/>
                        <Array as="points">
                            <mxPoint x="80" y="-340"/>
                        </Array>
                    </mxGeometry>
                </mxCell>
                <mxCell id="18" value="" style="endArrow=none;html=1;" edge="1" parent="1">
                    <mxGeometry width="50" height="50" relative="1" as="geometry">
                        <mxPoint x="400" y="-340" as="sourcePoint"/>
                        <mxPoint x="560" y="-500" as="targetPoint"/>
                        <Array as="points">
                            <mxPoint x="560" y="-340"/>
                        </Array>
                    </mxGeometry>
                </mxCell>
                <mxCell id="19" value="" style="endArrow=none;html=1;" edge="1" parent="1">
                    <mxGeometry width="50" height="50" relative="1" as="geometry">
                        <mxPoint x="370" y="-240" as="sourcePoint"/>
                        <mxPoint x="370" y="-340" as="targetPoint"/>
                    </mxGeometry>
                </mxCell>
                <mxCell id="20" value="&lt;font style=&quot;font-size: 11px;&quot;&gt;Precio_Venta=&lt;br&gt;Precio_Costo+Ganancia&lt;/font&gt;" style="rounded=0;whiteSpace=wrap;html=1;fillColor=#60a917;fontColor=#ffffff;strokeColor=#2D7600;" vertex="1" parent="1">
                    <mxGeometry x="320" y="-240" width="120" height="60" as="geometry"/>
                </mxCell>
                <mxCell id="21" value="Precio_Venta" style="shape=document;whiteSpace=wrap;html=1;boundedLbl=1;fillColor=#d80073;fontColor=#ffffff;strokeColor=#A50040;" vertex="1" parent="1">
                    <mxGeometry x="320" y="-130" width="120" height="70" as="geometry"/>
                </mxCell>
                <mxCell id="22" value="" style="endArrow=none;html=1;entryX=0.404;entryY=1.016;entryDx=0;entryDy=0;entryPerimeter=0;" edge="1" parent="1" target="20">
                    <mxGeometry width="50" height="50" relative="1" as="geometry">
                        <mxPoint x="368" y="-130" as="sourcePoint"/>
                        <mxPoint x="414" y="-180" as="targetPoint"/>
                    </mxGeometry>
                </mxCell>
                <mxCell id="23" value="" style="endArrow=none;html=1;" edge="1" parent="1">
                    <mxGeometry width="50" height="50" relative="1" as="geometry">
                        <mxPoint x="370" as="sourcePoint"/>
                        <mxPoint x="370" y="-60" as="targetPoint"/>
                    </mxGeometry>
                </mxCell>
                <mxCell id="24" value="FIN" style="ellipse;whiteSpace=wrap;html=1;fillColor=#a20025;fontColor=#ffffff;strokeColor=#6F0000;" vertex="1" parent="1">
                    <mxGeometry x="314" width="116" height="80" as="geometry"/>
                </mxCell>
            </root>
        </mxGraphModel>
    </diagram>
</mxfile>